<?xml version="1.0" encoding="UTF-8" standalone="no"?>
<svg width="128px" height="128px" viewBox="0 0 128 128" version="1.1" xmlns="http://www.w3.org/2000/svg" xmlns:xlink="http://www.w3.org/1999/xlink" xmlns:sketch="http://www.bohemiancoding.com/sketch/ns">
    <!-- Generator: Sketch 3.3.2 (12043) - http://www.bohemiancoding.com/sketch -->
    <title>qq_r</title>
    <desc>Created with Sketch.</desc>
    <defs></defs>
    <g id="Page-1" stroke="none" stroke-width="1" fill="none" fill-rule="evenodd" sketch:type="MSPage">
        <g id="user-info-setting-copy-2" sketch:type="MSArtboardGroup" transform="translate(-455.000000, -728.000000)" fill="#68A5E1">
            <g id="contactUs" sketch:type="MSLayerGroup" transform="translate(127.000000, 431.000000)">
                <g id="row_01-copy" transform="translate(0.000000, 296.000000)" sketch:type="MSShapeGroup">
                    <g id="weixinNumber-Copy" transform="translate(287.000000, 1.000000)">
                        <path d="M129.533433,0 L80.4666917,0 C66.5589253,0 57.7416192,0.0538745791 49.4073093,8.38755947 C41.0527496,16.7419942 41,25.60155 41,39.4666917 L41,88.5334333 C41,102.441825 41.0546246,111.259881 49.3875595,119.592816 C57.7463692,127.9515 66.602175,128 80.4666917,128 L129.533433,128 C143.441825,128 152.257256,127.948 160.592816,119.612441 C168.94575,111.259381 169,102.397825 169,88.5333083 L169,39.4666917 C169,25.5588003 168.9465,16.7412442 160.612441,8.40730932 C152.254381,0.0489996172 143.39795,0 129.533433,0 Z M70.2385617,53.2588165 C69.7117762,54.6510395 70.484127,55.532444 70.2385617,60.8330126 C70.1725109,62.2587308 64.0246358,68.7122296 61.584776,75.4149464 C59.1643588,82.0642496 58.8312988,89.0104872 62.5681607,91.7405225 C66.3050226,94.4705579 69.7839216,82.653196 70.2385616,84.3726879 C70.4369122,85.1228684 70.684263,85.9033148 70.9819919,86.7051254 C72.1778685,89.9257281 74.1865249,93.4910107 77.0972504,96.8241062 C77.6885399,97.5011966 73.4955143,98.7463032 70.9819918,103.022049 C68.4684691,107.297794 71.7021261,115.071876 84.2026252,115.071874 C100.330135,115.071874 103.934938,109.401709 104.263673,109.426554 C105.464508,109.517311 105.547498,109.426555 106.820474,109.426556 C108.377833,109.426556 107.733474,109.551755 109.180597,109.426554 C109.962127,109.358939 117.800223,116.212625 128.651615,115.071874 C147.13925,113.128363 144.312157,106.932405 142.860977,103.022049 C141.346377,98.9407999 135.990779,97.0284 136.227195,96.7671229 C140.655943,91.8726642 141.357706,88.8677753 142.860976,84.3726892 C143.478944,82.5248383 147.768824,94.5390056 151.072787,91.7405225 C152.449528,90.5744112 155.203005,85.7156042 152.449528,75.4149464 C149.696051,65.1142885 144.372135,62.7645298 144.48781,60.833012 C144.728567,56.8129298 144.588785,53.9899 144.385771,53.2588165 C143.402385,49.7174857 141.346375,50.4994236 141.346375,49.7174857 C141.346375,29.3285203 126.013988,12.8 107.100528,12.8 C88.1870674,12.8 72.8546801,29.3285203 72.8546801,49.7174857 C72.8546801,51.3357952 71.4186235,50.1400726 70.2385617,53.2588165 Z" id="qq_r"></path>
                    </g>
                </g>
            </g>
        </g>
    </g>
</svg>